<svg width="57" height="57" viewBox="0 0 57 57" fill="none" xmlns="http://www.w3.org/2000/svg">
<path d="M18.7969 28.1808C18.7969 23.0251 22.9755 18.8444 28.1314 18.8444C33.2874 18.8444 37.4682 23.0251 37.4682 28.1808C37.4682 33.3366 33.2874 37.5173 28.1314 37.5173C22.9755 37.5173 18.7969 33.3366 18.7969 28.1808ZM13.7496 28.1808C13.7496 36.1236 20.1883 42.5621 28.1314 42.5621C36.0745 42.5621 42.5133 36.1236 42.5133 28.1808C42.5133 20.2381 36.0745 13.7996 28.1314 13.7996C20.1883 13.7996 13.7496 20.2381 13.7496 28.1808ZM39.7216 13.2294C39.7209 15.0855 41.2251 16.5908 43.0813 16.5915C44.9375 16.5923 46.4429 15.0882 46.4436 13.232C46.4443 11.3759 44.9402 9.8706 43.084 9.86986H43.0826C41.2273 9.87072 39.7233 11.3741 39.7216 13.2294ZM16.8161 50.9779C14.0855 50.8535 12.6013 50.3987 11.6149 50.0144C10.3073 49.5054 9.37427 48.8991 8.39331 47.9195C7.41235 46.94 6.80514 46.0079 6.2983 44.7003C5.91381 43.7144 5.45895 42.2298 5.33482 39.4993C5.19904 36.5471 5.17193 35.6603 5.17193 28.1811C5.17193 20.7019 5.20128 19.8175 5.33482 16.8629C5.45918 14.1323 5.91739 12.6506 6.2983 11.6619C6.80738 10.3543 7.4137 9.4213 8.39331 8.44038C9.37292 7.45946 10.305 6.85227 11.6149 6.34545C12.6008 5.96097 14.0855 5.50614 16.8161 5.38201C19.7684 5.24624 20.6553 5.21912 28.1314 5.21912C35.6076 5.21912 36.4953 5.24848 39.4501 5.38201C42.1808 5.50636 43.6625 5.96456 44.6513 6.34545C45.9589 6.85227 46.892 7.46081 47.8729 8.44038C48.8539 9.41995 49.4588 10.3543 49.9679 11.6619C50.3524 12.6477 50.8073 14.1323 50.9314 16.8629C51.0672 19.8175 51.0943 20.7019 51.0943 28.1811C51.0943 35.6603 51.0672 36.5446 50.9314 39.4993C50.807 42.2298 50.35 43.714 49.9679 44.7003C49.4588 46.0079 48.8525 46.9408 47.8729 47.9195C46.8933 48.8982 45.9589 49.5054 44.6513 50.0144C43.6654 50.3989 42.1808 50.8538 39.4501 50.9779C36.4978 51.1137 35.611 51.1408 28.1314 51.1408C20.6519 51.1408 19.7675 51.1137 16.8161 50.9779ZM16.5842 0.343439C13.6026 0.479217 11.5652 0.951975 9.78588 1.64431C7.94316 2.35927 6.38322 3.31846 4.8244 4.87475C3.26558 6.43104 2.30882 7.99339 1.59383 9.83603C0.901469 11.6164 0.428692 13.6526 0.292908 16.6341C0.154884 19.6203 0.123291 20.575 0.123291 28.1808C0.123291 35.7867 0.154884 36.7414 0.292908 39.7276C0.428692 42.7093 0.901469 44.7453 1.59383 46.5257C2.30882 48.3672 3.2658 49.9313 4.8244 51.4869C6.383 53.0426 7.94316 54.0004 9.78588 54.7174C11.5685 55.4097 13.6026 55.8825 16.5842 56.0183C19.5721 56.154 20.5253 56.1879 28.1314 56.1879C35.7375 56.1879 36.6923 56.1563 39.6786 56.0183C42.6605 55.8825 44.6966 55.4097 46.477 54.7174C48.3186 54.0004 49.8796 53.0432 51.4385 51.4869C52.9973 49.9307 53.952 48.3672 54.669 46.5257C55.3614 44.7453 55.8364 42.7091 55.97 39.7276C56.1057 36.7391 56.1373 35.7867 56.1373 28.1808C56.1373 20.575 56.1057 19.6203 55.97 16.6341C55.8342 13.6524 55.3614 11.6153 54.669 9.83603C53.952 7.99451 52.9948 6.43351 51.4385 4.87475C49.8821 3.31599 48.3186 2.35927 46.4792 1.64431C44.6966 0.951975 42.6603 0.476976 39.6809 0.343439C36.6945 0.207661 35.7398 0.173828 28.1337 0.173828C20.5276 0.173828 19.5721 0.20542 16.5842 0.343439Z" fill="url(#paint0_radial_8_845)"/>
<defs>
<radialGradient id="paint0_radial_8_845" cx="0" cy="0" r="1" gradientUnits="userSpaceOnUse" gradientTransform="translate(7.56539 56.4525) scale(73.1245)">
<stop offset="0.09" stop-color="#FA8F21"/>
<stop offset="0.78" stop-color="#D82D7E"/>
</radialGradient>
</defs>
</svg>
